<svg width="256" height="256" viewBox="0 0 256 256" fill="none" xmlns="http://www.w3.org/2000/svg">
<circle cx="128" cy="127.999" r="56.8889" fill="#3D409C"/>
<path d="M37.4903 37.4903C16.5504 58.4302 3.51898 85.9829 0.616354 115.454C-2.28627 144.925 5.11953 174.49 21.5719 199.113C38.0243 223.736 62.5052 241.892 90.8436 250.488C119.182 259.085 149.624 257.589 176.983 246.257C204.343 234.924 226.926 214.456 240.886 188.339C254.846 162.222 259.318 132.073 253.541 103.028C247.763 73.984 232.094 47.8413 209.202 29.0547C186.311 10.2681 157.613 2.23576e-06 128 0L128 40.5751C148.226 40.5751 167.827 47.5882 183.462 60.4196C199.097 73.251 209.799 91.1067 213.745 110.944C217.691 130.782 214.636 151.374 205.102 169.212C195.567 187.05 180.143 201.03 161.456 208.77C142.769 216.51 121.977 217.532 102.622 211.66C83.2666 205.789 66.5459 193.388 55.3088 176.571C44.0717 159.753 39.0135 139.56 40.996 119.431C42.9786 99.302 51.8791 80.4833 66.1812 66.1812L37.4903 37.4903Z" fill="#221F20"/>
</svg>
