<svg width="226" height="40" viewBox="0 0 226 40" fill="none" xmlns="http://www.w3.org/2000/svg">
<circle cx="14.8595" cy="20.0732" r="6.60424" fill="#3D409C"/>
<path d="M4.35226 9.56612C1.92134 11.997 0.408519 15.1956 0.0715526 18.6169C-0.265414 22.0382 0.594326 25.4705 2.50428 28.3289C4.41424 31.1874 7.25624 33.2951 10.546 34.2931C13.8358 35.291 17.3699 35.1174 20.546 33.8018C23.7222 32.4862 26.3439 30.11 27.9645 27.0781C29.5851 24.0462 30.1042 20.5462 29.4335 17.1745C28.7629 13.8027 26.9438 10.7678 24.2863 8.58683C21.6288 6.40589 18.2974 5.21387 14.8595 5.21387V9.92423C17.2076 9.92423 19.483 10.7384 21.2981 12.228C23.1132 13.7176 24.3556 15.7905 24.8137 18.0934C25.2718 20.3963 24.9172 22.7869 23.8103 24.8577C22.7034 26.9285 20.9128 28.5514 18.7435 29.45C16.5741 30.3486 14.1603 30.4672 11.9134 29.7856C9.66643 29.1039 7.72532 27.6643 6.42081 25.712C5.11629 23.7596 4.52908 21.4154 4.75924 19.0786C4.98939 16.7419 6.02266 14.5572 7.68299 12.8969L4.35226 9.56612Z" fill="#221F20"/>
<path d="M59.6265 15.0081C59.5356 14.0922 59.1458 13.3807 58.457 12.8735C57.7682 12.3664 56.8334 12.1128 55.6526 12.1128C54.8502 12.1128 54.1728 12.2263 53.6202 12.4534C53.0677 12.6729 52.6438 12.9795 52.3486 13.3731C52.0609 13.7667 51.9171 14.2133 51.9171 14.7128C51.902 15.1292 51.989 15.4925 52.1783 15.8028C52.3751 16.1132 52.6438 16.3819 52.9844 16.609C53.325 16.8285 53.7186 17.0215 54.1652 17.188C54.6118 17.347 55.0887 17.4832 55.5958 17.5968L57.6849 18.0963C58.6992 18.3234 59.6303 18.6262 60.478 19.0046C61.3258 19.3831 62.06 19.8486 62.6807 20.4012C63.3014 20.9537 63.782 21.6047 64.1226 22.3541C64.4708 23.1034 64.6487 23.9625 64.6563 24.9314C64.6487 26.3544 64.2854 27.5882 63.5663 28.6328C62.8548 29.6698 61.8254 30.4759 60.478 31.0512C59.1383 31.6189 57.5222 31.9028 55.6299 31.9028C53.7527 31.9028 52.1177 31.6151 50.725 31.0398C49.3398 30.4646 48.2574 29.613 47.4777 28.4852C46.7057 27.3498 46.3007 25.9457 46.2629 24.2729H51.0202C51.0732 25.0525 51.2964 25.7035 51.69 26.2258C52.0912 26.7405 52.6249 27.1303 53.291 27.3952C53.9646 27.6526 54.7253 27.7813 55.5731 27.7813C56.4057 27.7813 57.1286 27.6602 57.7417 27.4179C58.3624 27.1757 58.843 26.8389 59.1837 26.4074C59.5243 25.976 59.6946 25.4802 59.6946 24.9201C59.6946 24.3978 59.5394 23.9588 59.2291 23.603C58.9263 23.2472 58.4797 22.9445 57.8893 22.6947C57.3065 22.4449 56.5912 22.2178 55.7434 22.0134L53.2115 21.3776C51.251 20.9008 49.7031 20.1552 48.5677 19.1409C47.4323 18.1266 46.8684 16.7603 46.876 15.0421C46.8684 13.6342 47.2431 12.4042 48 11.3521C48.7645 10.2999 49.8129 9.47867 51.1451 8.88827C52.4773 8.29786 53.9911 8.00266 55.6866 8.00266C57.4124 8.00266 58.9187 8.29786 60.2055 8.88827C61.4999 9.47867 62.5066 10.2999 63.2257 11.3521C63.9448 12.4042 64.3157 13.6229 64.3384 15.0081H59.6265ZM75.7519 31.9141C73.9883 31.9141 72.4631 31.5394 71.1763 30.7901C69.8971 30.0331 68.9093 28.981 68.2129 27.6337C67.5165 26.2788 67.1683 24.7081 67.1683 22.9218C67.1683 21.1203 67.5165 19.5459 68.2129 18.1985C68.9093 16.8436 69.8971 15.7915 71.1763 15.0421C72.4631 14.2852 73.9883 13.9067 75.7519 13.9067C77.5156 13.9067 79.037 14.2852 80.3162 15.0421C81.603 15.7915 82.5946 16.8436 83.291 18.1985C83.9873 19.5459 84.3355 21.1203 84.3355 22.9218C84.3355 24.7081 83.9873 26.2788 83.291 27.6337C82.5946 28.981 81.603 30.0331 80.3162 30.7901C79.037 31.5394 77.5156 31.9141 75.7519 31.9141ZM75.7746 28.1673C76.577 28.1673 77.2469 27.9402 77.7843 27.4861C78.3217 27.0243 78.7267 26.3961 78.9992 25.6013C79.2792 24.8065 79.4193 23.902 79.4193 22.8877C79.4193 21.8734 79.2792 20.9689 78.9992 20.1741C78.7267 19.3793 78.3217 18.7511 77.7843 18.2893C77.2469 17.8276 76.577 17.5968 75.7746 17.5968C74.9647 17.5968 74.2835 17.8276 73.7309 18.2893C73.1859 18.7511 72.7734 19.3793 72.4934 20.1741C72.2209 20.9689 72.0846 21.8734 72.0846 22.8877C72.0846 23.902 72.2209 24.8065 72.4934 25.6013C72.7734 26.3961 73.1859 27.0243 73.7309 27.4861C74.2835 27.9402 74.9647 28.1673 75.7746 28.1673ZM94.9714 31.5735V8.32057H104.282C105.992 8.32057 107.419 8.57414 108.562 9.08128C109.705 9.58843 110.564 10.2924 111.139 11.1931C111.715 12.0863 112.002 13.1157 112.002 14.2814C112.002 15.1897 111.821 15.9883 111.457 16.6771C111.094 17.3583 110.594 17.9185 109.959 18.3575C109.33 18.7889 108.611 19.0955 107.801 19.2771V19.5042C108.687 19.5421 109.516 19.7919 110.288 20.2536C111.067 20.7153 111.7 21.3625 112.184 22.1951C112.668 23.0202 112.911 24.0042 112.911 25.1471C112.911 26.3809 112.604 27.4823 111.991 28.4511C111.385 29.4124 110.488 30.1732 109.3 30.7333C108.112 31.2934 106.647 31.5735 104.906 31.5735H94.9714ZM99.8876 27.5542H103.896C105.266 27.5542 106.265 27.293 106.893 26.7708C107.521 26.2409 107.835 25.537 107.835 24.6589C107.835 24.0155 107.68 23.4478 107.37 22.9558C107.06 22.4638 106.617 22.0778 106.041 21.7977C105.474 21.5177 104.796 21.3776 104.009 21.3776H99.8876V27.5542ZM99.8876 18.0509H103.532C104.206 18.0509 104.804 17.9336 105.326 17.6989C105.856 17.4567 106.272 17.1161 106.575 16.6771C106.885 16.2381 107.041 15.712 107.041 15.0989C107.041 14.2587 106.742 13.5812 106.144 13.0665C105.553 12.5518 104.713 12.2945 103.623 12.2945H99.8876V18.0509ZM116.019 31.5735V14.1338H120.708V17.1767H120.89C121.208 16.0942 121.741 15.2768 122.491 14.7242C123.24 14.1641 124.103 13.884 125.079 13.884C125.321 13.884 125.583 13.8991 125.863 13.9294C126.143 13.9597 126.389 14.0013 126.601 14.0543V18.3461C126.374 18.278 126.059 18.2174 125.658 18.1645C125.257 18.1115 124.89 18.085 124.557 18.085C123.845 18.085 123.21 18.2401 122.649 18.5505C122.097 18.8533 121.658 19.2771 121.332 19.8221C121.015 20.3671 120.856 20.9954 120.856 21.7069V31.5735H116.019ZM136.237 31.9141C134.443 31.9141 132.899 31.5508 131.605 30.8241C130.318 30.0899 129.327 29.0529 128.63 27.7131C127.934 26.3658 127.586 24.7725 127.586 22.9331C127.586 21.1392 127.934 19.5648 128.63 18.2099C129.327 16.855 130.307 15.799 131.571 15.0421C132.843 14.2852 134.334 13.9067 136.044 13.9067C137.195 13.9067 138.266 14.0922 139.258 14.4631C140.257 14.8264 141.127 15.3752 141.869 16.1094C142.618 16.8436 143.201 17.7671 143.617 18.8798C144.034 19.9849 144.242 21.2792 144.242 22.7628V24.0912H129.516V21.0938H139.689C139.689 20.3974 139.538 19.7805 139.235 19.2431C138.932 18.7057 138.512 18.2856 137.975 17.9828C137.445 17.6724 136.828 17.5173 136.124 17.5173C135.39 17.5173 134.739 17.6876 134.171 18.0282C133.611 18.3613 133.172 18.8116 132.854 19.3793C132.536 19.9395 132.373 20.5639 132.366 21.2527V24.1026C132.366 24.9655 132.525 25.7111 132.843 26.3393C133.168 26.9676 133.626 27.452 134.216 27.7926C134.807 28.1332 135.507 28.3035 136.317 28.3035C136.854 28.3035 137.346 28.2279 137.793 28.0765C138.239 27.9251 138.622 27.698 138.94 27.3952C139.258 27.0925 139.5 26.7216 139.666 26.2825L144.14 26.5777C143.913 27.6526 143.447 28.5912 142.743 29.3935C142.047 30.1883 141.146 30.809 140.041 31.2556C138.943 31.6946 137.676 31.9141 136.237 31.9141ZM152.371 31.9028C151.259 31.9028 150.267 31.7097 149.397 31.3237C148.526 30.9301 147.837 30.351 147.33 29.5865C146.831 28.8145 146.581 27.8532 146.581 26.7026C146.581 25.7338 146.759 24.9201 147.114 24.2615C147.47 23.603 147.955 23.0732 148.568 22.672C149.181 22.2708 149.877 21.968 150.657 21.7637C151.444 21.5593 152.269 21.4155 153.132 21.3322C154.146 21.2262 154.964 21.1278 155.584 21.037C156.205 20.9386 156.656 20.7948 156.936 20.6056C157.216 20.4163 157.356 20.1363 157.356 19.7654V19.6972C157.356 18.9782 157.129 18.4218 156.674 18.0282C156.228 17.6346 155.592 17.4378 154.767 17.4378C153.897 17.4378 153.204 17.6308 152.689 18.0169C152.175 18.3953 151.834 18.8722 151.667 19.4475L147.194 19.0841C147.421 18.0244 147.868 17.1085 148.534 16.3365C149.2 15.5568 150.059 14.9589 151.111 14.5425C152.171 14.1187 153.397 13.9067 154.79 13.9067C155.759 13.9067 156.686 14.0203 157.571 14.2473C158.465 14.4744 159.256 14.8264 159.944 15.3033C160.641 15.7801 161.19 16.3932 161.591 17.1426C161.992 17.8844 162.193 18.7738 162.193 19.8108V31.5735H157.606V29.1551H157.469C157.189 29.7001 156.815 30.1807 156.345 30.597C155.876 31.0058 155.312 31.3275 154.653 31.5621C153.995 31.7892 153.234 31.9028 152.371 31.9028ZM153.757 28.5647C154.468 28.5647 155.096 28.4247 155.641 28.1446C156.186 27.857 156.614 27.4709 156.924 26.9865C157.235 26.502 157.39 25.9533 157.39 25.3402V23.4895C157.238 23.5879 157.03 23.6787 156.765 23.762C156.508 23.8377 156.217 23.9096 155.891 23.9777C155.566 24.0382 155.24 24.095 154.915 24.148C154.589 24.1934 154.294 24.235 154.029 24.2729C153.461 24.3561 152.966 24.4886 152.542 24.6703C152.118 24.8519 151.788 25.0979 151.554 25.4083C151.319 25.7111 151.202 26.0895 151.202 26.5437C151.202 27.2022 151.44 27.7056 151.917 28.0538C152.402 28.3944 153.015 28.5647 153.757 28.5647ZM175.221 14.1338V17.7671H164.719V14.1338H175.221ZM167.103 9.95554H171.94V26.2144C171.94 26.661 172.008 27.0092 172.144 27.259C172.281 27.5012 172.47 27.6715 172.712 27.7699C172.962 27.8683 173.249 27.9175 173.575 27.9175C173.802 27.9175 174.029 27.8986 174.256 27.8607C174.483 27.8153 174.657 27.7813 174.778 27.7586L175.539 31.3578C175.297 31.4335 174.956 31.5205 174.517 31.6189C174.078 31.7249 173.545 31.7892 172.916 31.8119C171.751 31.8573 170.729 31.7022 169.851 31.3464C168.98 30.9906 168.303 30.4381 167.818 29.6887C167.334 28.9394 167.096 27.9932 167.103 26.8502V9.95554ZM183.583 21.4912V31.5735H178.747V8.32057H183.447V17.2107H183.651C184.045 16.1813 184.681 15.3752 185.559 14.7923C186.437 14.2019 187.538 13.9067 188.863 13.9067C190.074 13.9067 191.13 14.1716 192.031 14.7015C192.939 15.2238 193.643 15.9769 194.143 16.9609C194.65 17.9374 194.899 19.1068 194.892 20.4693V31.5735H190.055V21.3322C190.063 20.2574 189.79 19.421 189.238 18.823C188.693 18.225 187.928 17.926 186.944 17.926C186.286 17.926 185.703 18.0661 185.196 18.3461C184.696 18.6262 184.302 19.0349 184.015 19.5723C183.735 20.1022 183.591 20.7418 183.583 21.4912ZM206.646 31.9141C204.852 31.9141 203.308 31.5508 202.014 30.8241C200.727 30.0899 199.735 29.0529 199.039 27.7131C198.343 26.3658 197.994 24.7725 197.994 22.9331C197.994 21.1392 198.343 19.5648 199.039 18.2099C199.735 16.855 200.716 15.799 201.98 15.0421C203.251 14.2852 204.742 13.9067 206.453 13.9067C207.604 13.9067 208.675 14.0922 209.666 14.4631C210.665 14.8264 211.536 15.3752 212.278 16.1094C213.027 16.8436 213.61 17.7671 214.026 18.8798C214.442 19.9849 214.651 21.2792 214.651 22.7628V24.0912H199.925V21.0938H210.098C210.098 20.3974 209.946 19.7805 209.644 19.2431C209.341 18.7057 208.921 18.2856 208.383 17.9828C207.853 17.6724 207.237 17.5173 206.533 17.5173C205.798 17.5173 205.147 17.6876 204.58 18.0282C204.02 18.3613 203.581 18.8116 203.263 19.3793C202.945 19.9395 202.782 20.5639 202.774 21.2527V24.1026C202.774 24.9655 202.933 25.7111 203.251 26.3393C203.577 26.9676 204.035 27.452 204.625 27.7926C205.216 28.1332 205.916 28.3035 206.726 28.3035C207.263 28.3035 207.755 28.2279 208.202 28.0765C208.648 27.9251 209.03 27.698 209.348 27.3952C209.666 27.0925 209.908 26.7216 210.075 26.2825L214.548 26.5777C214.321 27.6526 213.856 28.5912 213.152 29.3935C212.456 30.1883 211.555 30.809 210.45 31.2556C209.352 31.6946 208.084 31.9141 206.646 31.9141Z" fill="#221F20"/>
<path d="M220.634 31.8687C219.885 31.8687 219.241 31.6038 218.704 31.0739C218.174 30.5365 217.909 29.8931 217.909 29.1437C217.909 28.4019 218.174 27.7661 218.704 27.2363C219.241 26.7064 219.885 26.4415 220.634 26.4415C221.361 26.4415 221.997 26.7064 222.542 27.2363C223.087 27.7661 223.359 28.4019 223.359 29.1437C223.359 29.6433 223.23 30.1013 222.973 30.5176C222.723 30.9263 222.394 31.2556 221.985 31.5054C221.577 31.7476 221.126 31.8687 220.634 31.8687Z" fill="#3D409C"/>
</svg>
